<svg width="24" height="24" viewBox="0 0 24 24" fill="none" xmlns="http://www.w3.org/2000/svg">
<path d="M9.46875 5.25H14.5312C16.8608 5.25 18.75 7.13916 18.75 9.46875V14.5312C18.75 16.8608 16.8608 18.75 14.5312 18.75H9.46875C7.13916 18.75 5.25 16.8608 5.25 14.5312V9.46875C5.25 7.13916 7.13916 5.25 9.46875 5.25ZM6.51562 14.5312C6.51562 16.1597 7.84031 17.4844 9.46875 17.4844H14.5312C16.1597 17.4844 17.4844 16.1597 17.4844 14.5312V9.46875C17.4844 7.84031 16.1597 6.51562 14.5312 6.51562H9.46875C7.84031 6.51562 6.51562 7.84031 6.51562 9.46875V14.5312Z" fill="#999999"/>
<path d="M12 8.625C13.8638 8.625 15.375 10.1362 15.375 12C15.375 13.8638 13.8638 15.375 12 15.375C10.1362 15.375 8.625 13.8638 8.625 12C8.625 10.1362 10.1362 8.625 12 8.625ZM12 14.1094C13.1627 14.1094 14.1094 13.1627 14.1094 12C14.1094 10.8365 13.1627 9.89062 12 9.89062C10.8373 9.89062 9.89062 10.8365 9.89062 12C9.89062 13.1627 10.8373 14.1094 12 14.1094Z" fill="#999999"/>
<path d="M8.37194 8.82131C8.12356 8.82131 7.92222 8.61996 7.92222 8.37159C7.92222 8.12322 8.12356 7.92188 8.37194 7.92188C8.62031 7.92188 8.82166 8.12322 8.82166 8.37159C8.82166 8.61996 8.62031 8.82131 8.37194 8.82131Z" fill="#999999"/>
</svg>
