<svg width="129" height="48" viewBox="0 0 129 48" fill="none" xmlns="http://www.w3.org/2000/svg">
<g clip-path="url(#clip0_170_4224)">
<path fill-rule="evenodd" clip-rule="evenodd" d="M0 47.7391H6V29.1652H0V47.7391ZM20.5043 47.7391L13.3043 39.913C12.887 39.4956 12.313 38.8695 12.313 38.2434C12.313 38.0869 12.4174 37.6695 13.0957 36.8869L19.5652 29.2173H12.4174L7.4087 36.2086C6.9913 36.7826 6.57391 37.5652 6.57391 38.2956C6.57391 39.0782 7.2 40.0173 7.66957 40.5913L13.3043 47.7913H20.5043V47.7391ZM30.4696 28.9565C27.6522 28.9565 24.313 29.0608 22.3304 30.8869C20.2957 32.7652 20.2435 36 20.2435 38.5043C20.2435 40.9565 20.3478 44.1913 22.3304 46.1217C24.313 47.9478 27.7043 48.0521 30.4696 48.0521C33.2348 48.0521 36.6261 47.9478 38.6087 46.1217C40.6435 44.2434 40.6957 40.9565 40.6957 38.5043C40.6957 36 40.5913 32.7652 38.6087 30.8869C36.5739 29.0608 33.287 28.9565 30.4696 28.9565ZM26.4 38.4521C26.4 36.8869 26.4522 35.8956 27.0783 34.9043C27.8609 33.7043 28.9043 33.5478 30.4696 33.5478C32.0348 33.5478 33.0261 33.7043 33.8609 34.9043C34.5913 35.9478 34.5391 36.8347 34.5391 38.4521C34.5391 39.913 34.5391 40.9565 33.8609 42C33.0261 43.2 32.0348 43.3565 30.4696 43.3565C28.9565 43.3565 27.913 43.2 27.0783 42C26.5043 41.0608 26.4 39.913 26.4 38.4521ZM49.5652 47.7391V42.4173H57.3913C58.3826 42.4173 59.7913 42.1565 60.6783 41.426C62.2435 40.0695 62.3478 36.8869 62.3478 35.5826C62.3478 32.9217 61.8261 31.4608 60.9913 30.5217C59.9478 29.426 58.5913 29.2173 57.0783 29.2173H46.8C45.5478 29.2173 44.713 29.7391 44.3478 30.1565C43.7217 30.8869 43.6174 31.9304 43.6174 32.713V47.7913H49.5652V47.7391ZM49.5652 37.7739V34.9043C49.5652 34.4869 49.6696 33.8086 50.6087 33.8086H53.9478C54.6261 33.8086 55.3043 33.8086 55.8261 34.226C56.2957 34.6434 56.3478 35.2173 56.3478 35.6869C56.3478 36.4695 56.1391 36.9913 55.8783 37.3043C55.3565 37.826 54.6261 37.7739 53.8957 37.7739H49.5652ZM61.2522 47.7391H67.5652L69.0261 43.9304H75.7044L77.1652 47.7391H83.4783L76.5913 31.1999C75.7043 29.113 74.1391 28.9565 72.3652 28.9565C69.4957 28.9565 68.713 29.8434 68.1391 31.1999L61.2522 47.7391ZM72.1565 35.0086C72.2087 34.8521 72.313 34.5913 72.4174 34.5913C72.5217 34.5913 72.6261 34.8521 72.6783 35.0086L74.3478 39.7043H70.5391L72.1565 35.0086ZM83.7391 47.7391H90.1043L94.5913 35.426C94.6435 35.3217 94.7478 34.9565 94.9043 34.9565C95.0609 34.9565 95.1652 35.3217 95.2174 35.426L99.7044 47.7391H106.07L98.9217 30.8347C98.1391 29.0086 96.0522 28.9043 94.9043 28.9043C93.7565 28.9043 91.6696 29.0086 90.887 30.8347L83.7391 47.7391ZM106.07 47.7391H112.435L116.922 35.426C116.974 35.3217 117.078 34.9565 117.235 34.9565C117.391 34.9565 117.496 35.3217 117.548 35.426L122.035 47.7391H128.348L121.2 30.8347C120.417 29.0086 118.33 28.9043 117.183 28.9043C116.035 28.9043 113.948 29.0086 113.165 30.8347L106.07 47.7391ZM63.3913 0.104301L84.9391 8.66082C85.0956 8.713 85.1478 8.86952 85.0957 9.07821C85.0957 9.13039 85.0435 9.23473 84.9913 9.33908C84.9391 9.44343 84.887 9.4956 84.8348 9.59995C84.6261 9.96517 84.2609 10.2782 84 10.1739C82.1739 9.44343 80.3478 8.713 78.4696 7.98256C73.513 5.99995 68.5565 4.06952 63.6 2.08691C60.5739 0.88691 54.1565 4.12169 49.4609 6.52169C47.8435 7.35647 46.3826 8.08691 45.3391 8.5043L44.9739 8.66082H74.4C74.5565 8.66082 74.6087 8.713 74.6609 8.86952V9.13039C74.6609 9.18256 74.6087 9.28691 74.5565 9.39126C74.4 9.75647 74.0348 10.2782 73.7217 10.2782H41.0087C40.9043 10.2782 40.8522 10.226 40.8 10.1739C40.6957 10.0695 40.6957 9.96517 40.7478 9.80865C40.7478 9.75647 40.8 9.65213 40.8522 9.54778C41.0609 9.18256 41.4261 8.76517 41.5826 8.713L53.113 4.12169C53.5304 3.96517 54.2609 3.59995 55.2 3.13039C57.913 1.66952 62.0348 -0.417438 63.3913 0.104301C63.3391 0.0521272 63.3391 0.0521272 63.3913 0.104301C63.3391 0.104301 63.3391 0.104301 63.3913 0.104301ZM63.3391 0.0521272C63.3391 0.104301 63.3391 0.104301 63.3391 0.0521272V0.0521272ZM59.5826 19.7739C59.7391 19.826 59.7913 19.9826 59.7391 20.1913C59.7391 20.2434 59.687 20.3478 59.6348 20.4521C59.5826 20.5565 59.5304 20.6086 59.4783 20.713C59.2696 21.0782 58.9043 21.4434 58.6435 21.3391L38.2957 13.2521C35.2696 12.0521 28.8522 15.2869 24.1565 17.6869C22.5391 18.5217 21.0783 19.2521 20.0348 19.6695L19.6696 19.826H49.0956C49.3043 19.826 49.3565 19.9304 49.3565 20.1391V20.2434C49.3565 20.2956 49.3043 20.4 49.2522 20.4521C49.0957 20.8173 48.7304 21.3391 48.4174 21.3391H15.6522C15.5478 21.3391 15.4957 21.2869 15.4435 21.2347C15.3913 21.1304 15.3391 21.026 15.3913 20.9217C15.3913 20.8695 15.4435 20.7652 15.4957 20.6608C15.7043 20.2956 16.0696 19.8782 16.2261 19.7739L27.7565 15.1826C28.1739 15.026 28.9043 14.6608 29.8435 14.1913C32.5565 12.8347 36.6783 10.7478 37.9826 11.2173L59.5826 19.7739ZM109.722 20.2956C109.983 20.4 110.035 20.6086 109.983 20.8173C109.983 20.9217 109.93 21.026 109.878 21.1304C109.826 21.2347 109.774 21.3391 109.722 21.3913C109.461 21.7043 109.096 21.9652 108.783 21.8086L88.4348 13.7217C85.5652 12.5739 79.2 15.8086 74.5043 18.1565C72.887 18.9913 71.4261 19.6695 70.4348 20.0869L70.0696 20.2434H99.1826C99.3913 20.2434 99.4957 20.3478 99.5478 20.5043C99.6 20.6086 99.6 20.713 99.5478 20.8173C99.5478 20.9217 99.4957 21.026 99.4435 21.0782C99.287 21.4434 98.9217 21.8608 98.5565 21.8608H65.7913C65.6348 21.8608 65.5304 21.8086 65.4783 21.7565C65.3739 21.6521 65.3739 21.5478 65.3739 21.3913C65.3739 21.2869 65.4261 21.1826 65.4783 21.0782C65.6348 20.7652 65.8957 20.4 66.1043 20.3478L66.7304 20.0869C70.8522 18.4173 75.0261 16.8 79.1478 15.1304C79.7217 14.9217 80.5043 14.5043 81.3913 14.0347C83.5826 12.8869 86.3478 11.4782 87.9652 11.6869C92.7652 12.313 97.9826 14.8173 102.887 17.2173C105.339 18.313 107.635 19.4608 109.722 20.2956Z" fill="#7C2D1C"/>
</g>
<defs>
<clipPath id="clip0_170_4224">
<rect width="128.348" height="48" fill="white"/>
</clipPath>
</defs>
</svg>
