<svg width="107" height="18" viewBox="0 0 107 18" fill="none" xmlns="http://www.w3.org/2000/svg">
<g clip-path="url(#clip0_170_4737)">
<path fill-rule="evenodd" clip-rule="evenodd" d="M0 16.2826H5V0.804306H0V16.2826ZM17.087 16.2826L11.087 9.76083C10.7391 9.413 10.2609 8.89126 10.2609 8.36953C10.2609 8.23909 10.3478 7.89126 10.913 7.23909L16.3043 0.847784H10.3478L6.17391 6.67387C5.82609 7.15213 5.47826 7.80431 5.47826 8.413C5.47826 9.06518 6 9.84779 6.3913 10.326L11.087 16.326H17.087V16.2826ZM25.3913 0.630392C23.0435 0.630392 20.2609 0.717349 18.6087 2.23909C16.913 3.80431 16.8696 6.49996 16.8696 8.58692C16.8696 10.6304 16.9565 13.326 18.6087 14.9347C20.2609 16.4565 23.087 16.5434 25.3913 16.5434C27.6957 16.5434 30.5217 16.4565 32.1739 14.9347C33.8696 13.3695 33.913 10.6304 33.913 8.58692C33.913 6.49996 33.8261 3.80431 32.1739 2.23909C30.4783 0.717349 27.7391 0.630392 25.3913 0.630392ZM22 8.54344C22 7.23909 22.0435 6.413 22.5652 5.58692C23.2174 4.58692 24.087 4.45648 25.3913 4.45648C26.6957 4.45648 27.5217 4.58692 28.2174 5.58692C28.8261 6.45648 28.7826 7.19561 28.7826 8.54344C28.7826 9.76083 28.7826 10.6304 28.2174 11.5C27.5217 12.5 26.6957 12.6304 25.3913 12.6304C24.1304 12.6304 23.2609 12.5 22.5652 11.5C22.087 10.7174 22 9.76083 22 8.54344ZM41.3043 16.2826V11.8478H47.8261C48.6522 11.8478 49.8261 11.6304 50.5652 11.0217C51.8696 9.89126 51.9565 7.23909 51.9565 6.15213C51.9565 3.93474 51.5217 2.71735 50.8261 1.93474C49.9565 1.0217 48.8261 0.847784 47.5652 0.847784H39C37.9565 0.847784 37.2609 1.28257 36.9565 1.63039C36.4348 2.23909 36.3478 3.10865 36.3478 3.76083V16.326H41.3043V16.2826ZM41.3043 7.97822V5.58692C41.3043 5.23909 41.3913 4.67387 42.1739 4.67387H44.9565C45.5217 4.67387 46.087 4.67387 46.5217 5.0217C46.913 5.36952 46.9565 5.84779 46.9565 6.23909C46.9565 6.89126 46.7826 7.32605 46.5652 7.58692C46.1304 8.0217 45.5217 7.97822 44.913 7.97822H41.3043ZM51.0435 16.2826H56.3043L57.5217 13.1087H63.087L64.3043 16.2826H69.5652L63.8261 2.49996C63.087 0.760828 61.7826 0.630392 60.3043 0.630392C57.913 0.630392 57.2609 1.36952 56.7826 2.49996L51.0435 16.2826ZM60.1304 5.67387C60.1739 5.54344 60.2609 5.32605 60.3478 5.32605C60.4348 5.32605 60.5217 5.54344 60.5652 5.67387L61.9565 9.58692H58.7826L60.1304 5.67387ZM69.7826 16.2826H75.087L78.8261 6.0217C78.8696 5.93474 78.9565 5.63039 79.087 5.63039C79.2174 5.63039 79.3043 5.93474 79.3478 6.0217L83.087 16.2826H88.3913L82.4348 2.19561C81.7826 0.673869 80.0435 0.586914 79.087 0.586914C78.1304 0.586914 76.3913 0.673869 75.7391 2.19561L69.7826 16.2826ZM88.3913 16.2826H93.6956L97.4348 6.0217C97.4783 5.93474 97.5652 5.63039 97.6956 5.63039C97.8261 5.63039 97.913 5.93474 97.9565 6.0217L101.696 16.2826H106.957L101 2.19561C100.348 0.673869 98.6087 0.586914 97.6522 0.586914C96.6957 0.586914 94.9565 0.673869 94.3043 2.19561L88.3913 16.2826Z" fill="#7C2D1C"/>
</g>
<defs>
<clipPath id="clip0_170_4737">
<rect width="107" height="17" fill="white" transform="translate(0 0.5)"/>
</clipPath>
</defs>
</svg>
