<svg width="24" height="24" viewBox="0 0 24 24" fill="none" xmlns="http://www.w3.org/2000/svg">
<path d="M12.7101 12.0002L9.17006 8.46019C8.98381 8.27283 8.87926 8.01938 8.87926 7.75519C8.87926 7.49101 8.98381 7.23756 9.17006 7.05019C9.26302 6.95646 9.37362 6.88207 9.49548 6.8313C9.61734 6.78053 9.74804 6.75439 9.88006 6.75439C10.0121 6.75439 10.1428 6.78053 10.2646 6.8313C10.3865 6.88207 10.4971 6.95646 10.5901 7.05019L14.8301 11.2902C14.9238 11.3832 14.9982 11.4938 15.0489 11.6156C15.0997 11.7375 15.1259 11.8682 15.1259 12.0002C15.1259 12.1322 15.0997 12.2629 15.0489 12.3848C14.9982 12.5066 14.9238 12.6172 14.8301 12.7102L10.5901 17.0002C10.4966 17.0929 10.3858 17.1662 10.264 17.216C10.1421 17.2657 10.0117 17.291 9.88006 17.2902C9.74845 17.291 9.61799 17.2657 9.49615 17.216C9.37431 17.1662 9.2635 17.0929 9.17006 17.0002C8.98381 16.8128 8.87926 16.5594 8.87926 16.2952C8.87926 16.031 8.98381 15.7776 9.17006 15.5902L12.7101 12.0002Z" fill="white"/>
</svg>
