<svg width="24" height="24" viewBox="0 0 24 24" fill="none" xmlns="http://www.w3.org/2000/svg">
<path fill-rule="evenodd" clip-rule="evenodd" d="M19.6329 7.6434C19.7442 7.27256 19.6329 7 19.1035 7H17.3531C16.908 7 16.703 7.23543 16.5917 7.49512C16.5917 7.49512 15.7015 9.66475 14.4404 11.0741C14.0325 11.482 13.847 11.6117 13.6245 11.6117C13.5132 11.6117 13.3522 11.482 13.3522 11.1112V7.6434C13.3522 7.1983 13.223 7 12.8521 7H10.1014C9.82336 7 9.65607 7.20655 9.65607 7.40234C9.65607 7.82432 10.2865 7.92159 10.3515 9.10837V11.6861C10.3515 12.2512 10.2495 12.3537 10.0269 12.3537C9.43352 12.3537 7.99018 10.1742 7.13398 7.68053C6.96619 7.1958 6.7979 7 6.35055 7H4.60014C4.10002 7 4 7.23543 4 7.49512C4 7.95872 4.59351 10.2583 6.76314 13.2995C8.20973 15.3762 10.2475 16.5022 12.1019 16.5022C13.2147 16.5022 13.3522 16.2522 13.3522 15.8214V14.2517C13.3522 13.7516 13.4576 13.6518 13.8098 13.6518C14.0696 13.6518 14.5146 13.7816 15.5532 14.7829C16.74 15.9696 16.9355 16.5022 17.6032 16.5022H19.3536C19.8537 16.5022 20.1038 16.2522 19.9595 15.7587C19.8017 15.2668 19.2351 14.5534 18.4831 13.7074C18.0752 13.2252 17.4631 12.706 17.2778 12.4464C17.0182 12.1126 17.0923 11.9643 17.2778 11.6677C17.2778 11.6677 19.4103 8.66351 19.6329 7.64353V7.6434Z" fill="#999999"/>
</svg>
